<svg xmlns="http://www.w3.org/2000/svg" xmlns:xlink="http://www.w3.org/1999/xlink" contentStyleType="text/css" data-diagram-type="SEQUENCE" height="2749px" preserveAspectRatio="none" style="width:1329px;height:2749px;background:#FFFFFF;" version="1.1" viewBox="0 0 1329 2749" width="1329px" zoomAndPan="magnify"><title>Iteration 5 — Fault Handling &amp; Battery Management with Performance Metrics</title><defs/><g><text fill="#000000" font-family="sans-serif" font-size="14" font-weight="bold" lengthAdjust="spacing" textLength="620.7168" x="350.3223" y="27.9951">Iteration 5 — Fault Handling &amp; Battery Management with Performance Metrics</text><rect fill="none" height="331.0703" style="stroke:#000000;stroke-width:1.5;" width="679.4873" x="419.7041" y="556.4531"/><rect fill="none" height="240.8672" style="stroke:#000000;stroke-width:1.5;" width="659.4873" x="429.7041" y="580.5859"/><rect fill="none" height="255.1953" style="stroke:#000000;stroke-width:1.5;" width="595.9663" x="429.7041" y="1052.1875"/><rect fill="none" height="461.7969" style="stroke:#000000;stroke-width:1.5;" width="365.9922" x="429.7041" y="1487.1797"/><g><title>Operator</title><rect fill="#000000" fill-opacity="0.00000" height="2550.5703" width="8" x="35.3325" y="118.5938"/><line style="stroke:#181818;stroke-width:0.5;stroke-dasharray:5,5;" x1="39" x2="39" y1="118.5938" y2="2669.1641"/></g><g><title>FireIncidentSubsystem</title><rect fill="#000000" fill-opacity="0.00000" height="2550.5703" width="8" x="308.459" y="118.5938"/><line style="stroke:#181818;stroke-width:0.5;stroke-dasharray:5,5;" x1="312.4478" x2="312.4478" y1="118.5938" y2="2669.1641"/></g><g><title>SchedulerUDP</title><rect fill="#000000" fill-opacity="0.00000" height="2550.5703" width="8" x="492.4834" y="118.5938"/><line style="stroke:#181818;stroke-width:0.5;stroke-dasharray:5,5;" x1="495.7041" x2="495.7041" y1="118.5938" y2="2669.1641"/></g><g><title>FireGUI</title><rect fill="#000000" fill-opacity="0.00000" height="2550.5703" width="8" x="748.9282" y="118.5938"/><line style="stroke:#181818;stroke-width:0.5;stroke-dasharray:5,5;" x1="752.1602" x2="752.1602" y1="118.5938" y2="2669.1641"/></g><g><title>DroneSubsystem</title><rect fill="#000000" fill-opacity="0.00000" height="2550.5703" width="8" x="858.6201" y="118.5938"/><line style="stroke:#181818;stroke-width:0.5;stroke-dasharray:5,5;" x1="861.6963" x2="861.6963" y1="118.5938" y2="2669.1641"/></g><g><title>PerformanceMetricsGenerator</title><rect fill="#000000" fill-opacity="0.00000" height="2550.5703" width="8" x="1116.6938" y="118.5938"/><line style="stroke:#181818;stroke-width:0.5;stroke-dasharray:5,5;" x1="1120.0068" x2="1120.0068" y1="118.5938" y2="2669.1641"/></g><g class="participant participant-head" data-participant="Operator"><text fill="#000000" font-family="sans-serif" font-size="14" lengthAdjust="spacing" textLength="62.665" x="5" y="115.292">Operator</text><ellipse cx="39.3325" cy="50.7969" fill="#E2E2F0" rx="8" ry="8" style="stroke:#181818;stroke-width:0.5;"/><path d="M39.3325,58.7969 L39.3325,85.7969 M26.3325,66.7969 L52.3325,66.7969 M39.3325,85.7969 L26.3325,100.7969 M39.3325,85.7969 L52.3325,100.7969" fill="none" style="stroke:#181818;stroke-width:0.5;"/></g><g class="participant participant-tail" data-participant="Operator"><text fill="#000000" font-family="sans-serif" font-size="14" lengthAdjust="spacing" textLength="62.665" x="5" y="2681.1592">Operator</text><ellipse cx="39.3325" cy="2692.9609" fill="#E2E2F0" rx="8" ry="8" style="stroke:#181818;stroke-width:0.5;"/><path d="M39.3325,2700.9609 L39.3325,2727.9609 M26.3325,2708.9609 L52.3325,2708.9609 M39.3325,2727.9609 L26.3325,2742.9609 M39.3325,2727.9609 L52.3325,2742.9609" fill="none" style="stroke:#181818;stroke-width:0.5;"/></g><g class="participant participant-head" data-participant="FIS"><rect fill="#E2E2F0" height="30.2969" rx="2.5" ry="2.5" style="stroke:#181818;stroke-width:0.5;" width="174.0225" x="225.4478" y="87.2969"/><text fill="#000000" font-family="sans-serif" font-size="14" lengthAdjust="spacing" textLength="160.0225" x="232.4478" y="107.292">FireIncidentSubsystem</text></g><g class="participant participant-tail" data-participant="FIS"><rect fill="#E2E2F0" height="30.2969" rx="2.5" ry="2.5" style="stroke:#181818;stroke-width:0.5;" width="174.0225" x="225.4478" y="2668.1641"/><text fill="#000000" font-family="sans-serif" font-size="14" lengthAdjust="spacing" textLength="160.0225" x="232.4478" y="2688.1592">FireIncidentSubsystem</text></g><g class="participant participant-head" data-participant="SCH"><rect fill="#E2E2F0" height="30.2969" rx="2.5" ry="2.5" style="stroke:#181818;stroke-width:0.5;" width="113.5586" x="439.7041" y="87.2969"/><text fill="#000000" font-family="sans-serif" font-size="14" lengthAdjust="spacing" textLength="99.5586" x="446.7041" y="107.292">SchedulerUDP</text></g><g class="participant participant-tail" data-participant="SCH"><rect fill="#E2E2F0" height="30.2969" rx="2.5" ry="2.5" style="stroke:#181818;stroke-width:0.5;" width="113.5586" x="439.7041" y="2668.1641"/><text fill="#000000" font-family="sans-serif" font-size="14" lengthAdjust="spacing" textLength="99.5586" x="446.7041" y="2688.1592">SchedulerUDP</text></g><g class="participant participant-head" data-participant="GUI"><rect fill="#E2E2F0" height="30.2969" rx="2.5" ry="2.5" style="stroke:#181818;stroke-width:0.5;" width="65.5361" x="720.1602" y="87.2969"/><text fill="#000000" font-family="sans-serif" font-size="14" lengthAdjust="spacing" textLength="51.5361" x="727.1602" y="107.292">FireGUI</text></g><g class="participant participant-tail" data-participant="GUI"><rect fill="#E2E2F0" height="30.2969" rx="2.5" ry="2.5" style="stroke:#181818;stroke-width:0.5;" width="65.5361" x="720.1602" y="2668.1641"/><text fill="#000000" font-family="sans-serif" font-size="14" lengthAdjust="spacing" textLength="51.5361" x="727.1602" y="2688.1592">FireGUI</text></g><g class="participant participant-head" data-participant="D"><rect fill="#E2E2F0" height="30.2969" rx="2.5" ry="2.5" style="stroke:#181818;stroke-width:0.5;" width="133.8477" x="795.6963" y="87.2969"/><text fill="#000000" font-family="sans-serif" font-size="14" lengthAdjust="spacing" textLength="119.8477" x="802.6963" y="107.292">DroneSubsystem</text></g><g class="participant participant-tail" data-participant="D"><rect fill="#E2E2F0" height="30.2969" rx="2.5" ry="2.5" style="stroke:#181818;stroke-width:0.5;" width="133.8477" x="795.6963" y="2668.1641"/><text fill="#000000" font-family="sans-serif" font-size="14" lengthAdjust="spacing" textLength="119.8477" x="802.6963" y="2688.1592">DroneSubsystem</text></g><g class="participant participant-head" data-participant="PMG"><rect fill="#E2E2F0" height="30.2969" rx="2.5" ry="2.5" style="stroke:#181818;stroke-width:0.5;" width="225.374" x="1008.0068" y="87.2969"/><text fill="#000000" font-family="sans-serif" font-size="14" lengthAdjust="spacing" textLength="211.374" x="1015.0068" y="107.292">PerformanceMetricsGenerator</text></g><g class="participant participant-tail" data-participant="PMG"><rect fill="#E2E2F0" height="30.2969" rx="2.5" ry="2.5" style="stroke:#181818;stroke-width:0.5;" width="225.374" x="1008.0068" y="2668.1641"/><text fill="#000000" font-family="sans-serif" font-size="14" lengthAdjust="spacing" textLength="211.374" x="1015.0068" y="2688.1592">PerformanceMetricsGenerator</text></g><g class="message" data-participant-1="Operator" data-participant-2="FIS"><polygon fill="#181818" points="300.459,145.7266,310.459,149.7266,300.459,153.7266,304.459,149.7266" style="stroke:#181818;stroke-width:1;"/><line style="stroke:#181818;stroke-width:1;" x1="39.3325" x2="306.459" y1="149.7266" y2="149.7266"/><text fill="#000000" font-family="sans-serif" font-size="13" lengthAdjust="spacing" textLength="249.1265" x="46.3325" y="144.6606">Load CSV (optional FaultType column)</text></g><g class="message" data-participant-1="FIS" data-participant-2="SCH"><polygon fill="#181818" points="484.4834,174.8594,494.4834,178.8594,484.4834,182.8594,488.4834,178.8594" style="stroke:#181818;stroke-width:1;"/><line style="stroke:#181818;stroke-width:1;" x1="312.459" x2="490.4834" y1="178.8594" y2="178.8594"/><text fill="#000000" font-family="sans-serif" font-size="13" lengthAdjust="spacing" textLength="160.0244" x="319.459" y="173.7935">UDP EVENT,…,FaultType</text></g><g class="message" data-participant-1="SCH" data-participant-2="SCH"><line style="stroke:#181818;stroke-width:1;" x1="496.4834" x2="538.4834" y1="223.125" y2="223.125"/><line style="stroke:#181818;stroke-width:1;" x1="538.4834" x2="538.4834" y1="223.125" y2="236.125"/><line style="stroke:#181818;stroke-width:1;" x1="497.4834" x2="538.4834" y1="236.125" y2="236.125"/><polygon fill="#181818" points="507.4834,232.125,497.4834,236.125,507.4834,240.125,503.4834,236.125" style="stroke:#181818;stroke-width:1;"/><text fill="#000000" font-family="sans-serif" font-size="13" lengthAdjust="spacing" textLength="102.2544" x="503.4834" y="202.9263">enqueue event,</text><text fill="#000000" font-family="sans-serif" font-size="13" lengthAdjust="spacing" textLength="131.2441" x="503.4834" y="218.0591">update zone display</text></g><g class="message" data-participant-1="SCH" data-participant-2="GUI"><polygon fill="#181818" points="740.9282,261.2578,750.9282,265.2578,740.9282,269.2578,744.9282,265.2578" style="stroke:#181818;stroke-width:1;"/><line style="stroke:#181818;stroke-width:1;" x1="496.4834" x2="746.9282" y1="265.2578" y2="265.2578"/><text fill="#000000" font-family="sans-serif" font-size="13" lengthAdjust="spacing" textLength="118.4092" x="503.4834" y="260.1919">setZoneOnFire(...)</text></g><rect fill="#EEEEEE" height="3" style="stroke:#EEEEEE;stroke-width:1;" width="1322.3613" x="0" y="293.8242"/><line style="stroke:#000000;stroke-width:1;" x1="0" x2="1322.3613" y1="293.8242" y2="293.8242"/><line style="stroke:#000000;stroke-width:1;" x1="0" x2="1322.3613" y1="296.8242" y2="296.8242"/><rect fill="#EEEEEE" height="23.1328" style="stroke:#000000;stroke-width:2;" width="82.7642" x="619.7986" y="283.2578"/><text fill="#000000" font-family="sans-serif" font-size="13" font-weight="bold" lengthAdjust="spacing" textLength="64.2383" x="625.7986" y="299.3247">Dispatch</text><g class="message" data-participant-1="D" data-participant-2="SCH"><polygon fill="#181818" points="507.4834,333.5234,497.4834,337.5234,507.4834,341.5234,503.4834,337.5234" style="stroke:#181818;stroke-width:1;"/><line style="stroke:#181818;stroke-width:1;" x1="501.4834" x2="861.6201" y1="337.5234" y2="337.5234"/><text fill="#000000" font-family="sans-serif" font-size="13" lengthAdjust="spacing" textLength="219.1782" x="513.4834" y="332.4575">UDP READY, (x, y, agent, battery)</text></g><g class="message" data-participant-1="SCH" data-participant-2="D"><polygon fill="#181818" points="850.6201,362.6563,860.6201,366.6563,850.6201,370.6563,854.6201,366.6563" style="stroke:#181818;stroke-width:1;"/><line style="stroke:#181818;stroke-width:1;" x1="496.4834" x2="856.6201" y1="366.6563" y2="366.6563"/><text fill="#000000" font-family="sans-serif" font-size="13" lengthAdjust="spacing" textLength="166.0674" x="503.4834" y="361.5903">UDP ASSIGN,…,FaultType</text></g><g class="message" data-participant-1="SCH" data-participant-2="GUI"><polygon fill="#181818" points="740.9282,391.7891,750.9282,395.7891,740.9282,399.7891,744.9282,395.7891" style="stroke:#181818;stroke-width:1;"/><line style="stroke:#181818;stroke-width:1;" x1="496.4834" x2="746.9282" y1="395.7891" y2="395.7891"/><text fill="#000000" font-family="sans-serif" font-size="13" lengthAdjust="spacing" textLength="166.1118" x="503.4834" y="390.7231">updateZone(drone, zone)</text></g><g class="message" data-participant-1="SCH" data-participant-2="GUI"><polygon fill="#181818" points="740.9282,420.9219,750.9282,424.9219,740.9282,428.9219,744.9282,424.9219" style="stroke:#181818;stroke-width:1;"/><line style="stroke:#181818;stroke-width:1;" x1="496.4834" x2="746.9282" y1="424.9219" y2="424.9219"/><text fill="#000000" font-family="sans-serif" font-size="13" lengthAdjust="spacing" textLength="197.5645" x="503.4834" y="419.856">updateBattery(drone, battery)</text></g><rect fill="#EEEEEE" height="3" style="stroke:#EEEEEE;stroke-width:1;" width="1322.3613" x="0" y="453.4883"/><line style="stroke:#000000;stroke-width:1;" x1="0" x2="1322.3613" y1="453.4883" y2="453.4883"/><line style="stroke:#000000;stroke-width:1;" x1="0" x2="1322.3613" y1="456.4883" y2="456.4883"/><rect fill="#EEEEEE" height="23.1328" style="stroke:#000000;stroke-width:2;" width="139.7407" x="591.3103" y="442.9219"/><text fill="#000000" font-family="sans-serif" font-size="13" font-weight="bold" lengthAdjust="spacing" textLength="121.2148" x="597.3103" y="458.9888">Mission &amp; Faults</text><g class="message" data-participant-1="D" data-participant-2="SCH"><polygon fill="#181818" points="507.4834,508.3203,497.4834,512.3203,507.4834,516.3203,503.4834,512.3203" style="stroke:#181818;stroke-width:1;"/><line style="stroke:#181818;stroke-width:1;" x1="501.4834" x2="861.6201" y1="512.3203" y2="512.3203"/><text fill="#000000" font-family="sans-serif" font-size="13" lengthAdjust="spacing" textLength="316.9194" x="513.4834" y="492.1216">DRONE_STATUS (includes battery) / DRONE_POS</text><text fill="#000000" font-family="sans-serif" font-size="13" lengthAdjust="spacing" textLength="154.2354" x="513.4834" y="507.2544">(as mission progresses)</text></g><g class="message" data-participant-1="SCH" data-participant-2="GUI"><polygon fill="#181818" points="740.9282,537.4531,750.9282,541.4531,740.9282,545.4531,744.9282,541.4531" style="stroke:#181818;stroke-width:1;"/><line style="stroke:#181818;stroke-width:1;" x1="496.4834" x2="746.9282" y1="541.4531" y2="541.4531"/><text fill="#000000" font-family="sans-serif" font-size="13" lengthAdjust="spacing" textLength="197.5645" x="503.4834" y="536.3872">updateBattery(drone, battery)</text></g><path d="M419.7041,556.4531 L484.147,556.4531 L484.147,563.5859 L474.147,573.5859 L419.7041,573.5859 L419.7041,556.4531" fill="#EEEEEE" style="stroke:#000000;stroke-width:1.5;"/><rect fill="none" height="331.0703" style="stroke:#000000;stroke-width:1.5;" width="679.4873" x="419.7041" y="556.4531"/><text fill="#000000" font-family="sans-serif" font-size="13" font-weight="bold" lengthAdjust="spacing" textLength="19.4429" x="434.7041" y="569.52">alt</text><text fill="#000000" font-family="sans-serif" font-size="11" font-weight="bold" lengthAdjust="spacing" textLength="231.6982" x="499.147" y="568.6636">[Injected fault on event (drone-side)]</text><path d="M429.7041,580.5859 L494.147,580.5859 L494.147,587.7188 L484.147,597.7188 L429.7041,597.7188 L429.7041,580.5859" fill="#EEEEEE" style="stroke:#000000;stroke-width:1.5;"/><rect fill="none" height="240.8672" style="stroke:#000000;stroke-width:1.5;" width="659.4873" x="429.7041" y="580.5859"/><text fill="#000000" font-family="sans-serif" font-size="13" font-weight="bold" lengthAdjust="spacing" textLength="19.4429" x="444.7041" y="593.6528">alt</text><text fill="#000000" font-family="sans-serif" font-size="11" font-weight="bold" lengthAdjust="spacing" textLength="157.6953" x="509.147" y="592.7964">[STUCK_IN_FLIGHT (soft)]</text><g class="message" data-participant-1="D" data-participant-2="SCH"><polygon fill="#181818" points="507.4834,614.8516,497.4834,618.8516,507.4834,622.8516,503.4834,618.8516" style="stroke:#181818;stroke-width:1;"/><line style="stroke:#181818;stroke-width:1;" x1="501.4834" x2="861.6201" y1="618.8516" y2="618.8516"/><text fill="#000000" font-family="sans-serif" font-size="13" lengthAdjust="spacing" textLength="99.6963" x="513.4834" y="613.7856">SOFT_FAULTED</text></g><path d="M867,631.8516 L867,671.8516 L1079,671.8516 L1079,641.8516 L1069,631.8516 L867,631.8516" fill="#FEFFDD" style="stroke:#181818;stroke-width:0.5;"/><path d="M1069,631.8516 L1069,641.8516 L1079,641.8516 L1069,631.8516" fill="#FEFFDD" style="stroke:#181818;stroke-width:0.5;"/><text fill="#000000" font-family="sans-serif" font-size="13" lengthAdjust="spacing" textLength="191.1914" x="873" y="648.9185">delay, hover (battery drains),</text><text fill="#000000" font-family="sans-serif" font-size="13" lengthAdjust="spacing" textLength="156.2285" x="873" y="664.0513">then resume EN_ROUTE</text><g class="message" data-participant-1="D" data-participant-2="SCH"><polygon fill="#181818" points="507.4834,694.25,497.4834,698.25,507.4834,702.25,503.4834,698.25" style="stroke:#181818;stroke-width:1;"/><line style="stroke:#181818;stroke-width:1;" x1="501.4834" x2="861.6201" y1="698.25" y2="698.25"/><text fill="#000000" font-family="sans-serif" font-size="13" lengthAdjust="spacing" textLength="213.3892" x="513.4834" y="693.1841">EN_ROUTE, DRONE_POS, battery</text></g><line style="stroke:#000000;stroke-width:1;stroke-dasharray:2,2;" x1="429.7041" x2="1089.1914" y1="707.25" y2="707.25"/><text fill="#000000" font-family="sans-serif" font-size="11" font-weight="bold" lengthAdjust="spacing" textLength="307.5059" x="434.7041" y="717.4604">[NOZZLE_FAULT or CORRUPTED_MESSAGE (hard)]</text><g class="message" data-participant-1="D" data-participant-2="SCH"><polygon fill="#181818" points="507.4834,738.1875,497.4834,742.1875,507.4834,746.1875,503.4834,742.1875" style="stroke:#181818;stroke-width:1;"/><line style="stroke:#181818;stroke-width:1;" x1="501.4834" x2="861.6201" y1="742.1875" y2="742.1875"/><text fill="#000000" font-family="sans-serif" font-size="13" lengthAdjust="spacing" textLength="227.5063" x="513.4834" y="737.1216">optional malformed / odd message</text></g><g class="message" data-participant-1="D" data-participant-2="SCH"><polygon fill="#181818" points="507.4834,767.3203,497.4834,771.3203,507.4834,775.3203,503.4834,771.3203" style="stroke:#181818;stroke-width:1;"/><line style="stroke:#181818;stroke-width:1;" x1="501.4834" x2="861.6201" y1="771.3203" y2="771.3203"/><text fill="#000000" font-family="sans-serif" font-size="13" lengthAdjust="spacing" textLength="59.2935" x="513.4834" y="766.2544">FAULTED</text></g><g class="message" data-participant-1="D" data-participant-2="D"><line style="stroke:#181818;stroke-width:1;" x1="862.6201" x2="904.6201" y1="800.4531" y2="800.4531"/><line style="stroke:#181818;stroke-width:1;" x1="904.6201" x2="904.6201" y1="800.4531" y2="813.4531"/><line style="stroke:#181818;stroke-width:1;" x1="863.6201" x2="904.6201" y1="813.4531" y2="813.4531"/><polygon fill="#181818" points="873.6201,809.4531,863.6201,813.4531,873.6201,817.4531,869.6201,813.4531" style="stroke:#181818;stroke-width:1;"/><text fill="#000000" font-family="sans-serif" font-size="13" lengthAdjust="spacing" textLength="156.146" x="869.6201" y="795.3872">shutdown (hardFaulted)</text></g><line style="stroke:#000000;stroke-width:1;stroke-dasharray:2,2;" x1="419.7041" x2="1099.1914" y1="829.4531" y2="829.4531"/><text fill="#000000" font-family="sans-serif" font-size="11" font-weight="bold" lengthAdjust="spacing" textLength="186.0117" x="424.7041" y="839.6636">[No drone-side hard fault yet]</text><g class="message" data-participant-1="D" data-participant-2="SCH"><polygon fill="#181818" points="507.4834,875.5234,497.4834,879.5234,507.4834,883.5234,503.4834,879.5234" style="stroke:#181818;stroke-width:1;"/><line style="stroke:#181818;stroke-width:1;" x1="501.4834" x2="861.6201" y1="879.5234" y2="879.5234"/><text fill="#000000" font-family="sans-serif" font-size="13" lengthAdjust="spacing" textLength="191.1279" x="513.4834" y="859.3247">normal progress toward zone</text><text fill="#000000" font-family="sans-serif" font-size="13" lengthAdjust="spacing" textLength="198.834" x="513.4834" y="874.4575">(battery draining during flight)</text></g><rect fill="#EEEEEE" height="3" style="stroke:#EEEEEE;stroke-width:1;" width="1322.3613" x="0" y="915.0898"/><line style="stroke:#000000;stroke-width:1;" x1="0" x2="1322.3613" y1="915.0898" y2="915.0898"/><line style="stroke:#000000;stroke-width:1;" x1="0" x2="1322.3613" y1="918.0898" y2="918.0898"/><rect fill="#EEEEEE" height="23.1328" style="stroke:#000000;stroke-width:2;" width="129.5654" x="596.3979" y="904.5234"/><text fill="#000000" font-family="sans-serif" font-size="13" font-weight="bold" lengthAdjust="spacing" textLength="111.0396" x="602.3979" y="920.5903">Battery Checks</text><path d="M733,942.6563 L733,997.6563 L990,997.6563 L990,952.6563 L980,942.6563 L733,942.6563" fill="#FEFFDD" style="stroke:#181818;stroke-width:0.5;"/><path d="M980,942.6563 L980,952.6563 L990,952.6563 L980,942.6563" fill="#FEFFDD" style="stroke:#181818;stroke-width:0.5;"/><text fill="#000000" font-family="sans-serif" font-size="13" lengthAdjust="spacing" textLength="121.583" x="739" y="959.7231">During EN_ROUTE:</text><text fill="#000000" font-family="sans-serif" font-size="13" lengthAdjust="spacing" textLength="236.4438" x="739" y="974.856">if battery &lt; batteryNeededToReturn</text><text fill="#000000" font-family="sans-serif" font-size="13" lengthAdjust="spacing" textLength="189.2046" x="739" y="989.9888">abort mission, return to base</text><g class="message" data-participant-1="D" data-participant-2="D"><line style="stroke:#181818;stroke-width:1;" x1="862.6201" x2="904.6201" y1="1024.1875" y2="1024.1875"/><line style="stroke:#181818;stroke-width:1;" x1="904.6201" x2="904.6201" y1="1024.1875" y2="1037.1875"/><line style="stroke:#181818;stroke-width:1;" x1="863.6201" x2="904.6201" y1="1037.1875" y2="1037.1875"/><polygon fill="#181818" points="873.6201,1033.1875,863.6201,1037.1875,873.6201,1041.1875,869.6201,1037.1875" style="stroke:#181818;stroke-width:1;"/><text fill="#000000" font-family="sans-serif" font-size="13" lengthAdjust="spacing" textLength="244.0737" x="869.6201" y="1019.1216">check battery before each move step</text></g><path d="M429.7041,1052.1875 L494.147,1052.1875 L494.147,1059.3203 L484.147,1069.3203 L429.7041,1069.3203 L429.7041,1052.1875" fill="#EEEEEE" style="stroke:#000000;stroke-width:1.5;"/><rect fill="none" height="255.1953" style="stroke:#000000;stroke-width:1.5;" width="595.9663" x="429.7041" y="1052.1875"/><text fill="#000000" font-family="sans-serif" font-size="13" font-weight="bold" lengthAdjust="spacing" textLength="19.4429" x="444.7041" y="1065.2544">alt</text><text fill="#000000" font-family="sans-serif" font-size="11" font-weight="bold" lengthAdjust="spacing" textLength="165.6606" x="509.147" y="1064.3979">[Battery too low to return]</text><g class="message" data-participant-1="D" data-participant-2="SCH"><polygon fill="#181818" points="507.4834,1086.4531,497.4834,1090.4531,507.4834,1094.4531,503.4834,1090.4531" style="stroke:#181818;stroke-width:1;"/><line style="stroke:#181818;stroke-width:1;" x1="501.4834" x2="861.6201" y1="1090.4531" y2="1090.4531"/><text fill="#000000" font-family="sans-serif" font-size="13" lengthAdjust="spacing" textLength="247.5459" x="513.4834" y="1085.3872">BATTERY_LOW (via RETURNING state)</text></g><g class="message" data-participant-1="D" data-participant-2="SCH"><polygon fill="#181818" points="507.4834,1115.5859,497.4834,1119.5859,507.4834,1123.5859,503.4834,1119.5859" style="stroke:#181818;stroke-width:1;"/><line style="stroke:#181818;stroke-width:1;" x1="501.4834" x2="861.6201" y1="1119.5859" y2="1119.5859"/><text fill="#000000" font-family="sans-serif" font-size="13" lengthAdjust="spacing" textLength="77.0923" x="513.4834" y="1114.52">RETURNING</text></g><g class="message" data-participant-1="D" data-participant-2="D"><line style="stroke:#181818;stroke-width:1;" x1="862.6201" x2="904.6201" y1="1148.7188" y2="1148.7188"/><line style="stroke:#181818;stroke-width:1;" x1="904.6201" x2="904.6201" y1="1148.7188" y2="1161.7188"/><line style="stroke:#181818;stroke-width:1;" x1="863.6201" x2="904.6201" y1="1161.7188" y2="1161.7188"/><polygon fill="#181818" points="873.6201,1157.7188,863.6201,1161.7188,873.6201,1165.7188,869.6201,1161.7188" style="stroke:#181818;stroke-width:1;"/><text fill="#000000" font-family="sans-serif" font-size="13" lengthAdjust="spacing" textLength="92.5679" x="869.6201" y="1143.6528">return to base</text></g><g class="message" data-participant-1="D" data-participant-2="SCH"><polygon fill="#181818" points="507.4834,1186.8516,497.4834,1190.8516,507.4834,1194.8516,503.4834,1190.8516" style="stroke:#181818;stroke-width:1;"/><line style="stroke:#181818;stroke-width:1;" x1="501.4834" x2="861.6201" y1="1190.8516" y2="1190.8516"/><text fill="#000000" font-family="sans-serif" font-size="13" lengthAdjust="spacing" textLength="171.0503" x="513.4834" y="1185.7856">REFILLED (battery=100%)</text></g><g class="message" data-participant-1="D" data-participant-2="SCH"><polygon fill="#181818" points="507.4834,1215.9844,497.4834,1219.9844,507.4834,1223.9844,503.4834,1219.9844" style="stroke:#181818;stroke-width:1;"/><line style="stroke:#181818;stroke-width:1;" x1="501.4834" x2="861.6201" y1="1219.9844" y2="1219.9844"/><text fill="#000000" font-family="sans-serif" font-size="13" lengthAdjust="spacing" textLength="29.3008" x="513.4834" y="1214.9185">IDLE</text></g><g class="message" data-participant-1="SCH" data-participant-2="D"><polygon fill="#181818" points="850.6201,1245.1172,860.6201,1249.1172,850.6201,1253.1172,854.6201,1249.1172" style="stroke:#181818;stroke-width:1;"/><line style="stroke:#181818;stroke-width:1;" x1="496.4834" x2="856.6201" y1="1249.1172" y2="1249.1172"/><text fill="#000000" font-family="sans-serif" font-size="13" lengthAdjust="spacing" textLength="181.4033" x="503.4834" y="1244.0513">reassign same event (retry)</text></g><path d="M867,1262.1172 L867,1302.1172 L1015,1302.1172 L1015,1272.1172 L1005,1262.1172 L867,1262.1172" fill="#FEFFDD" style="stroke:#181818;stroke-width:0.5;"/><path d="M1005,1262.1172 L1005,1272.1172 L1015,1272.1172 L1005,1262.1172" fill="#FEFFDD" style="stroke:#181818;stroke-width:0.5;"/><text fill="#000000" font-family="sans-serif" font-size="13" lengthAdjust="spacing" textLength="127.6704" x="873" y="1279.1841">Mission retried with</text><text fill="#000000" font-family="sans-serif" font-size="13" lengthAdjust="spacing" textLength="71.6206" x="873" y="1294.3169">full battery</text><path d="M733,1319.3828 L733,1374.3828 L990,1374.3828 L990,1329.3828 L980,1319.3828 L733,1319.3828" fill="#FEFFDD" style="stroke:#181818;stroke-width:0.5;"/><path d="M980,1319.3828 L980,1329.3828 L990,1329.3828 L980,1319.3828" fill="#FEFFDD" style="stroke:#181818;stroke-width:0.5;"/><text fill="#000000" font-family="sans-serif" font-size="13" lengthAdjust="spacing" textLength="155.9111" x="739" y="1336.4497">During EXTINGUISHING:</text><text fill="#000000" font-family="sans-serif" font-size="13" lengthAdjust="spacing" textLength="236.4438" x="739" y="1351.5825">if battery &lt; batteryNeededToReturn</text><text fill="#000000" font-family="sans-serif" font-size="13" lengthAdjust="spacing" textLength="135.4463" x="739" y="1366.7153">abort, return to base</text><rect fill="#EEEEEE" height="3" style="stroke:#EEEEEE;stroke-width:1;" width="1322.3613" x="0" y="1400.3477"/><line style="stroke:#000000;stroke-width:1;" x1="0" x2="1322.3613" y1="1400.3477" y2="1400.3477"/><line style="stroke:#000000;stroke-width:1;" x1="0" x2="1322.3613" y1="1403.3477" y2="1403.3477"/><rect fill="#EEEEEE" height="23.1328" style="stroke:#000000;stroke-width:2;" width="196.4443" x="562.9585" y="1389.7813"/><text fill="#000000" font-family="sans-serif" font-size="13" font-weight="bold" lengthAdjust="spacing" textLength="177.9185" x="568.9585" y="1405.8481">Timeout Fault Detection</text><g class="message" data-participant-1="SCH" data-participant-2="SCH"><line style="stroke:#181818;stroke-width:1;" x1="496.4834" x2="538.4834" y1="1459.1797" y2="1459.1797"/><line style="stroke:#181818;stroke-width:1;" x1="538.4834" x2="538.4834" y1="1459.1797" y2="1472.1797"/><line style="stroke:#181818;stroke-width:1;" x1="497.4834" x2="538.4834" y1="1472.1797" y2="1472.1797"/><polygon fill="#181818" points="507.4834,1468.1797,497.4834,1472.1797,507.4834,1476.1797,503.4834,1472.1797" style="stroke:#181818;stroke-width:1;"/><text fill="#000000" font-family="sans-serif" font-size="13" lengthAdjust="spacing" textLength="139.4771" x="503.4834" y="1438.981">on each UDP receive:</text><text fill="#000000" font-family="sans-serif" font-size="13" lengthAdjust="spacing" textLength="144.4028" x="503.4834" y="1454.1138">detectTimeoutFaults()</text></g><path d="M429.7041,1487.1797 L494.147,1487.1797 L494.147,1494.3125 L484.147,1504.3125 L429.7041,1504.3125 L429.7041,1487.1797" fill="#EEEEEE" style="stroke:#000000;stroke-width:1.5;"/><rect fill="none" height="461.7969" style="stroke:#000000;stroke-width:1.5;" width="365.9922" x="429.7041" y="1487.1797"/><text fill="#000000" font-family="sans-serif" font-size="13" font-weight="bold" lengthAdjust="spacing" textLength="19.4429" x="444.7041" y="1500.2466">alt</text><text fill="#000000" font-family="sans-serif" font-size="11" font-weight="bold" lengthAdjust="spacing" textLength="236.4678" x="509.147" y="1499.3901">[Scheduler timer — en-route too long]</text><g class="message" data-participant-1="SCH" data-participant-2="SCH"><line style="stroke:#181818;stroke-width:1;" x1="496.4834" x2="538.4834" y1="1540.5781" y2="1540.5781"/><line style="stroke:#181818;stroke-width:1;" x1="538.4834" x2="538.4834" y1="1540.5781" y2="1553.5781"/><line style="stroke:#181818;stroke-width:1;" x1="497.4834" x2="538.4834" y1="1553.5781" y2="1553.5781"/><polygon fill="#181818" points="507.4834,1549.5781,497.4834,1553.5781,507.4834,1557.5781,503.4834,1553.5781" style="stroke:#181818;stroke-width:1;"/><text fill="#000000" font-family="sans-serif" font-size="13" lengthAdjust="spacing" textLength="188.5825" x="503.4834" y="1520.3794">markDroneFaultAndRequeue</text><text fill="#000000" font-family="sans-serif" font-size="13" lengthAdjust="spacing" textLength="189.6616" x="503.4834" y="1535.5122">(STUCK_IN_FLIGHT / timeout)</text></g><g class="message" data-participant-1="SCH" data-participant-2="GUI"><polygon fill="#181818" points="740.9282,1578.7109,750.9282,1582.7109,740.9282,1586.7109,744.9282,1582.7109" style="stroke:#181818;stroke-width:1;"/><line style="stroke:#181818;stroke-width:1;" x1="496.4834" x2="746.9282" y1="1582.7109" y2="1582.7109"/><text fill="#000000" font-family="sans-serif" font-size="13" lengthAdjust="spacing" textLength="59.2935" x="503.4834" y="1577.645">FAULTED</text></g><g class="message" data-participant-1="SCH" data-participant-2="SCH"><line style="stroke:#181818;stroke-width:1;" x1="496.4834" x2="538.4834" y1="1626.9766" y2="1626.9766"/><line style="stroke:#181818;stroke-width:1;" x1="538.4834" x2="538.4834" y1="1626.9766" y2="1639.9766"/><line style="stroke:#181818;stroke-width:1;" x1="497.4834" x2="538.4834" y1="1639.9766" y2="1639.9766"/><polygon fill="#181818" points="507.4834,1635.9766,497.4834,1639.9766,507.4834,1643.9766,503.4834,1639.9766" style="stroke:#181818;stroke-width:1;"/><text fill="#000000" font-family="sans-serif" font-size="13" lengthAdjust="spacing" textLength="226.7002" x="503.4834" y="1606.7778">requeue event (FaultType=NONE),</text><text fill="#000000" font-family="sans-serif" font-size="13" lengthAdjust="spacing" textLength="178.8896" x="503.4834" y="1621.9106">add back to eventsPerZone</text></g><g class="message" data-participant-1="SCH" data-participant-2="GUI"><polygon fill="#181818" points="740.9282,1665.1094,750.9282,1669.1094,740.9282,1673.1094,744.9282,1669.1094" style="stroke:#181818;stroke-width:1;"/><line style="stroke:#181818;stroke-width:1;" x1="496.4834" x2="746.9282" y1="1669.1094" y2="1669.1094"/><text fill="#000000" font-family="sans-serif" font-size="13" lengthAdjust="spacing" textLength="232.4448" x="503.4834" y="1664.0435">setZoneOnFire(zone, true, severity)</text></g><g class="message" data-participant-1="SCH" data-participant-2="SCH"><line style="stroke:#181818;stroke-width:1;" x1="496.4834" x2="538.4834" y1="1698.2422" y2="1698.2422"/><line style="stroke:#181818;stroke-width:1;" x1="538.4834" x2="538.4834" y1="1698.2422" y2="1711.2422"/><line style="stroke:#181818;stroke-width:1;" x1="497.4834" x2="538.4834" y1="1711.2422" y2="1711.2422"/><polygon fill="#181818" points="507.4834,1707.2422,497.4834,1711.2422,507.4834,1715.2422,503.4834,1711.2422" style="stroke:#181818;stroke-width:1;"/><text fill="#000000" font-family="sans-serif" font-size="13" lengthAdjust="spacing" textLength="145.2598" x="503.4834" y="1693.1763">attempt reassignment</text></g><line style="stroke:#000000;stroke-width:1;stroke-dasharray:2,2;" x1="429.7041" x2="795.6963" y1="1720.2422" y2="1720.2422"/><text fill="#000000" font-family="sans-serif" font-size="11" font-weight="bold" lengthAdjust="spacing" textLength="304.0791" x="434.7041" y="1730.4526">[Scheduler timer — EXTINGUISHING no progress]</text><g class="message" data-participant-1="SCH" data-participant-2="SCH"><line style="stroke:#181818;stroke-width:1;" x1="496.4834" x2="538.4834" y1="1770.3125" y2="1770.3125"/><line style="stroke:#181818;stroke-width:1;" x1="538.4834" x2="538.4834" y1="1770.3125" y2="1783.3125"/><line style="stroke:#181818;stroke-width:1;" x1="497.4834" x2="538.4834" y1="1783.3125" y2="1783.3125"/><polygon fill="#181818" points="507.4834,1779.3125,497.4834,1783.3125,507.4834,1787.3125,503.4834,1783.3125" style="stroke:#181818;stroke-width:1;"/><text fill="#000000" font-family="sans-serif" font-size="13" lengthAdjust="spacing" textLength="188.5825" x="503.4834" y="1750.1138">markDroneFaultAndRequeue</text><text fill="#000000" font-family="sans-serif" font-size="13" lengthAdjust="spacing" textLength="118.8027" x="503.4834" y="1765.2466">(nozzle/bay stuck)</text></g><g class="message" data-participant-1="SCH" data-participant-2="GUI"><polygon fill="#181818" points="740.9282,1808.4453,750.9282,1812.4453,740.9282,1816.4453,744.9282,1812.4453" style="stroke:#181818;stroke-width:1;"/><line style="stroke:#181818;stroke-width:1;" x1="496.4834" x2="746.9282" y1="1812.4453" y2="1812.4453"/><text fill="#000000" font-family="sans-serif" font-size="13" lengthAdjust="spacing" textLength="59.2935" x="503.4834" y="1807.3794">FAULTED</text></g><g class="message" data-participant-1="SCH" data-participant-2="SCH"><line style="stroke:#181818;stroke-width:1;" x1="496.4834" x2="538.4834" y1="1856.7109" y2="1856.7109"/><line style="stroke:#181818;stroke-width:1;" x1="538.4834" x2="538.4834" y1="1856.7109" y2="1869.7109"/><line style="stroke:#181818;stroke-width:1;" x1="497.4834" x2="538.4834" y1="1869.7109" y2="1869.7109"/><polygon fill="#181818" points="507.4834,1865.7109,497.4834,1869.7109,507.4834,1873.7109,503.4834,1869.7109" style="stroke:#181818;stroke-width:1;"/><text fill="#000000" font-family="sans-serif" font-size="13" lengthAdjust="spacing" textLength="226.7002" x="503.4834" y="1836.5122">requeue event (FaultType=NONE),</text><text fill="#000000" font-family="sans-serif" font-size="13" lengthAdjust="spacing" textLength="178.8896" x="503.4834" y="1851.645">add back to eventsPerZone</text></g><g class="message" data-participant-1="SCH" data-participant-2="GUI"><polygon fill="#181818" points="740.9282,1894.8438,750.9282,1898.8438,740.9282,1902.8438,744.9282,1898.8438" style="stroke:#181818;stroke-width:1;"/><line style="stroke:#181818;stroke-width:1;" x1="496.4834" x2="746.9282" y1="1898.8438" y2="1898.8438"/><text fill="#000000" font-family="sans-serif" font-size="13" lengthAdjust="spacing" textLength="232.4448" x="503.4834" y="1893.7778">setZoneOnFire(zone, true, severity)</text></g><g class="message" data-participant-1="SCH" data-participant-2="SCH"><line style="stroke:#181818;stroke-width:1;" x1="496.4834" x2="538.4834" y1="1927.9766" y2="1927.9766"/><line style="stroke:#181818;stroke-width:1;" x1="538.4834" x2="538.4834" y1="1927.9766" y2="1940.9766"/><line style="stroke:#181818;stroke-width:1;" x1="497.4834" x2="538.4834" y1="1940.9766" y2="1940.9766"/><polygon fill="#181818" points="507.4834,1936.9766,497.4834,1940.9766,507.4834,1944.9766,503.4834,1940.9766" style="stroke:#181818;stroke-width:1;"/><text fill="#000000" font-family="sans-serif" font-size="13" lengthAdjust="spacing" textLength="145.2598" x="503.4834" y="1922.9106">attempt reassignment</text></g><path d="M97,1960.9766 L97,1985.9766 L894,1985.9766 L894,1970.9766 L884,1960.9766 L97,1960.9766" fill="#FEFFDD" style="stroke:#181818;stroke-width:0.5;"/><path d="M884,1960.9766 L884,1970.9766 L894,1970.9766 L884,1960.9766" fill="#FEFFDD" style="stroke:#181818;stroke-width:0.5;"/><text fill="#000000" font-family="sans-serif" font-size="13" lengthAdjust="spacing" textLength="776.8071" x="103" y="1978.0435">Requeue clears FaultType on the\nrequeued event and properly updates\neventsPerZone so GUI shows fire still active.</text><rect fill="#EEEEEE" height="3" style="stroke:#EEEEEE;stroke-width:1;" width="1322.3613" x="0" y="2011.6758"/><line style="stroke:#000000;stroke-width:1;" x1="0" x2="1322.3613" y1="2011.6758" y2="2011.6758"/><line style="stroke:#000000;stroke-width:1;" x1="0" x2="1322.3613" y1="2014.6758" y2="2014.6758"/><rect fill="#EEEEEE" height="23.1328" style="stroke:#000000;stroke-width:2;" width="166.7817" x="577.7898" y="2001.1094"/><text fill="#000000" font-family="sans-serif" font-size="13" font-weight="bold" lengthAdjust="spacing" textLength="148.2559" x="583.7898" y="2017.1763">Shutdown &amp; Metrics</text><g class="message" data-participant-1="Operator" data-participant-2="SCH"><polygon fill="#181818" points="484.4834,2051.375,494.4834,2055.375,484.4834,2059.375,488.4834,2055.375" style="stroke:#181818;stroke-width:1;"/><line style="stroke:#181818;stroke-width:1;" x1="39.3325" x2="490.4834" y1="2055.375" y2="2055.375"/><text fill="#000000" font-family="sans-serif" font-size="13" lengthAdjust="spacing" textLength="279.9443" x="46.3325" y="2050.3091">close GUI window (or all events processed)</text></g><g class="message" data-participant-1="SCH" data-participant-2="SCH"><line style="stroke:#181818;stroke-width:1;" x1="496.4834" x2="538.4834" y1="2084.5078" y2="2084.5078"/><line style="stroke:#181818;stroke-width:1;" x1="538.4834" x2="538.4834" y1="2084.5078" y2="2097.5078"/><line style="stroke:#181818;stroke-width:1;" x1="497.4834" x2="538.4834" y1="2097.5078" y2="2097.5078"/><polygon fill="#181818" points="507.4834,2093.5078,497.4834,2097.5078,507.4834,2101.5078,503.4834,2097.5078" style="stroke:#181818;stroke-width:1;"/><text fill="#000000" font-family="sans-serif" font-size="13" lengthAdjust="spacing" textLength="182.3618" x="503.4834" y="2079.4419">checkForSystemShutdown()</text></g><g class="message" data-participant-1="SCH" data-participant-2="D"><polygon fill="#181818" points="850.6201,2122.6406,860.6201,2126.6406,850.6201,2130.6406,854.6201,2126.6406" style="stroke:#181818;stroke-width:1;"/><line style="stroke:#181818;stroke-width:1;" x1="496.4834" x2="856.6201" y1="2126.6406" y2="2126.6406"/><text fill="#000000" font-family="sans-serif" font-size="13" lengthAdjust="spacing" textLength="228.4648" x="503.4834" y="2121.5747">UDP RETURN (to all drones in field)</text></g><g class="message" data-participant-1="D" data-participant-2="D"><line style="stroke:#181818;stroke-width:1;" x1="862.6201" x2="904.6201" y1="2155.7734" y2="2155.7734"/><line style="stroke:#181818;stroke-width:1;" x1="904.6201" x2="904.6201" y1="2155.7734" y2="2168.7734"/><line style="stroke:#181818;stroke-width:1;" x1="863.6201" x2="904.6201" y1="2168.7734" y2="2168.7734"/><polygon fill="#181818" points="873.6201,2164.7734,863.6201,2168.7734,873.6201,2172.7734,869.6201,2168.7734" style="stroke:#181818;stroke-width:1;"/><text fill="#000000" font-family="sans-serif" font-size="13" lengthAdjust="spacing" textLength="126.2676" x="869.6201" y="2150.7075">returnToBaseNow()</text></g><g class="message" data-participant-1="D" data-participant-2="SCH"><polygon fill="#181818" points="507.4834,2193.9063,497.4834,2197.9063,507.4834,2201.9063,503.4834,2197.9063" style="stroke:#181818;stroke-width:1;"/><line style="stroke:#181818;stroke-width:1;" x1="501.4834" x2="861.6201" y1="2197.9063" y2="2197.9063"/><text fill="#000000" font-family="sans-serif" font-size="13" lengthAdjust="spacing" textLength="98.833" x="513.4834" y="2192.8403">REFILLED, IDLE</text></g><g class="message" data-participant-1="SCH" data-participant-2="D"><polygon fill="#181818" points="850.6201,2223.0391,860.6201,2227.0391,850.6201,2231.0391,854.6201,2227.0391" style="stroke:#181818;stroke-width:1;"/><line style="stroke:#181818;stroke-width:1;" x1="496.4834" x2="856.6201" y1="2227.0391" y2="2227.0391"/><text fill="#000000" font-family="sans-serif" font-size="13" lengthAdjust="spacing" textLength="238.1387" x="503.4834" y="2221.9731">UDP SHUTDOWN (to drones at base)</text></g><g class="message" data-participant-1="D" data-participant-2="D"><line style="stroke:#181818;stroke-width:1;" x1="862.6201" x2="904.6201" y1="2256.1719" y2="2256.1719"/><line style="stroke:#181818;stroke-width:1;" x1="904.6201" x2="904.6201" y1="2256.1719" y2="2269.1719"/><line style="stroke:#181818;stroke-width:1;" x1="863.6201" x2="904.6201" y1="2269.1719" y2="2269.1719"/><polygon fill="#181818" points="873.6201,2265.1719,863.6201,2269.1719,873.6201,2273.1719,869.6201,2269.1719" style="stroke:#181818;stroke-width:1;"/><text fill="#000000" font-family="sans-serif" font-size="13" lengthAdjust="spacing" textLength="243.4707" x="869.6201" y="2251.106">shutdownRequested = true, exit loop</text></g><g class="message" data-participant-1="SCH" data-participant-2="SCH"><line style="stroke:#181818;stroke-width:1;" x1="496.4834" x2="538.4834" y1="2298.3047" y2="2298.3047"/><line style="stroke:#181818;stroke-width:1;" x1="538.4834" x2="538.4834" y1="2298.3047" y2="2311.3047"/><line style="stroke:#181818;stroke-width:1;" x1="497.4834" x2="538.4834" y1="2311.3047" y2="2311.3047"/><polygon fill="#181818" points="507.4834,2307.3047,497.4834,2311.3047,507.4834,2315.3047,503.4834,2311.3047" style="stroke:#181818;stroke-width:1;"/><text fill="#000000" font-family="sans-serif" font-size="13" lengthAdjust="spacing" textLength="139.2422" x="503.4834" y="2293.2388">terminateScheduler()</text></g><path d="M501,2324.3047 L501,2364.3047 L682,2364.3047 L682,2334.3047 L672,2324.3047 L501,2324.3047" fill="#FEFFDD" style="stroke:#181818;stroke-width:0.5;"/><path d="M672,2324.3047 L672,2334.3047 L682,2334.3047 L672,2324.3047" fill="#FEFFDD" style="stroke:#181818;stroke-width:0.5;"/><text fill="#000000" font-family="sans-serif" font-size="13" lengthAdjust="spacing" textLength="160.9067" x="507" y="2341.3716">wait 1 second for drones</text><text fill="#000000" font-family="sans-serif" font-size="13" lengthAdjust="spacing" textLength="104.5396" x="507" y="2356.5044">to finish logging</text><g class="message" data-participant-1="SCH" data-participant-2="PMG"><polygon fill="#181818" points="1108.6938,2386.7031,1118.6938,2390.7031,1108.6938,2394.7031,1112.6938,2390.7031" style="stroke:#181818;stroke-width:1;"/><line style="stroke:#181818;stroke-width:1;" x1="496.4834" x2="1114.6938" y1="2390.7031" y2="2390.7031"/><text fill="#000000" font-family="sans-serif" font-size="13" lengthAdjust="spacing" textLength="163.1665" x="503.4834" y="2385.6372">generateFromEventLog()</text></g><g class="message" data-participant-1="PMG" data-participant-2="PMG"><line style="stroke:#181818;stroke-width:1;" x1="1120.6938" x2="1162.6938" y1="2419.8359" y2="2419.8359"/><line style="stroke:#181818;stroke-width:1;" x1="1162.6938" x2="1162.6938" y1="2419.8359" y2="2432.8359"/><line style="stroke:#181818;stroke-width:1;" x1="1121.6938" x2="1162.6938" y1="2432.8359" y2="2432.8359"/><polygon fill="#181818" points="1131.6938,2428.8359,1121.6938,2432.8359,1131.6938,2436.8359,1127.6938,2432.8359" style="stroke:#181818;stroke-width:1;"/><text fill="#000000" font-family="sans-serif" font-size="13" lengthAdjust="spacing" textLength="125.8296" x="1127.6938" y="2414.77">parse event_log.txt</text></g><path d="M1125,2445.8359 L1125,2576.8359 L1317,2576.8359 L1317,2455.8359 L1307,2445.8359 L1125,2445.8359" fill="#FEFFDD" style="stroke:#181818;stroke-width:0.5;"/><path d="M1307,2445.8359 L1307,2455.8359 L1317,2455.8359 L1307,2445.8359" fill="#FEFFDD" style="stroke:#181818;stroke-width:0.5;"/><text fill="#000000" font-family="sans-serif" font-size="13" lengthAdjust="spacing" textLength="116.4478" x="1131" y="2462.9028">Metrics Collected:</text><text fill="#000000" font-family="sans-serif" font-size="13" lengthAdjust="spacing" textLength="159.1548" x="1131" y="2478.0356">- Avg extinguishing time</text><text fill="#000000" font-family="sans-serif" font-size="13" lengthAdjust="spacing" textLength="143.4634" x="1131" y="2493.1685">- Avg queue wait time</text><text fill="#000000" font-family="sans-serif" font-size="13" lengthAdjust="spacing" textLength="130.6284" x="1131" y="2508.3013">- Avg response time</text><text fill="#000000" font-family="sans-serif" font-size="13" lengthAdjust="spacing" textLength="126.6548" x="1131" y="2523.4341">- Total time all fires</text><text fill="#000000" font-family="sans-serif" font-size="13" lengthAdjust="spacing" textLength="171.3613" x="1131" y="2538.5669">- Per-drone flight/idle time</text><text fill="#000000" font-family="sans-serif" font-size="13" lengthAdjust="spacing" textLength="123.7603" x="1131" y="2553.6997">- Distance traveled</text><text fill="#000000" font-family="sans-serif" font-size="13" lengthAdjust="spacing" textLength="90.4478" x="1131" y="2568.8325">- Utilization %</text><g class="message" data-participant-1="PMG" data-participant-2="PMG"><line style="stroke:#181818;stroke-width:1;" x1="1120.6938" x2="1162.6938" y1="2603.0313" y2="2603.0313"/><line style="stroke:#181818;stroke-width:1;" x1="1162.6938" x2="1162.6938" y1="2603.0313" y2="2616.0313"/><line style="stroke:#181818;stroke-width:1;" x1="1121.6938" x2="1162.6938" y1="2616.0313" y2="2616.0313"/><polygon fill="#181818" points="1131.6938,2612.0313,1121.6938,2616.0313,1131.6938,2620.0313,1127.6938,2616.0313" style="stroke:#181818;stroke-width:1;"/><text fill="#000000" font-family="sans-serif" font-size="13" lengthAdjust="spacing" textLength="126.5659" x="1127.6938" y="2597.9653">write metrics to file</text></g><path d="M1003,2629.0313 L1003,2654.0313 L1238,2654.0313 L1238,2639.0313 L1228,2629.0313 L1003,2629.0313" fill="#FEFFDD" style="stroke:#181818;stroke-width:0.5;"/><path d="M1228,2629.0313 L1228,2639.0313 L1238,2639.0313 L1228,2629.0313" fill="#FEFFDD" style="stroke:#181818;stroke-width:0.5;"/><text fill="#000000" font-family="sans-serif" font-size="13" lengthAdjust="spacing" textLength="214.3096" x="1009" y="2646.0981">Output: performance_metrics.txt</text><!--SRC=[rLVDRjiu4BxhAGO5MiY0axI7lHJr0cvaEyOwTc39xJOmO33IsEPM8hqa5TSvzI7s6VR1-YGx92N5idF9SIzHB0vdlfdvvaU6cnnXR50nmwM0t-3NptzWoChSm0qJMSx51jx1PsP8v02tJB0D5YWCxBdPmXsgjLG54od2BHh5Knq4B3LImMndTKeLx9WoFEKxHfVU3Bd2iKXvHYhYya4VjC7Y3J0Dmt7S5etJBMPbZceHtJc9-FhcNDbeCNQ7z6mVHaeAR9k8sX97u2li8nGUj1E_knq5GUq6NFnk8S97c4YMmNNy1KAvip5ZkOzNSjWXf38l2z49h2ZT8CXqWno0mPV1DEd- -lbljn4Ex6aZXEBl4ai4VAJGT9UYt6NC83oH5v1nlSlPeRv0lj85ZUQU3cV2XY6ylBpi146l1n79CfDkeTSBeZQ6-Q0VVUj2-ACBXovG8iaGFFZKTchbKINSZ-FnQFeoOW_08xGOmim6k-l0TbuIglXJopKsBU1RhhMbtZiVHdq2F9hFfeDLdFIJHGmX5sbUPgWR5N1LITpDugK8AMr5fM-dv4QXrgXV1uaHzSVYBqmDPh1sbK3QN5h0Irzeucyd0B2YSRAu_cCrdgw6a_7e9e5GoxMnXm17NiIpOR8QzXUJP12vCo4fkOfljgHz3T57o90ot8MjV4G5OGK7CiMuq1tYWzcY0FAdB106qzLyjaW6frRgzztdc3IUaIpc6c4wkx-V33mM85vVp-RpnHt1MjqEuhW_6a2uPIexyw0XUy5oMpOKd2kGMGO5nPYuT2f_x6nK4qjlIvF9lV0sNBxHcKAH1HwUXESOWvMgSd104xGC25kxUPDcC79lfIq7YGYj0DecbfNAFjQvZNadi0Oj- -hETht5zBlZdikCou957FbhTMG_BWLVro65J_L_KyGCiqJEqPHAB0LxaChKJEnIsknhGaZo6eEWYKTghJRg7f02Ins0KVKMX02eS-qS7skKHah8vTvgyZfFe_wvdoI3-RVLPFOLmaVEgEQJnNmwdev86R7-BAtDUJjH9uZFBWt7ayaWQdZQ-_3-_TiptUDeuYbwr5eKCWhAHe1c1TPLHTPiwRrO5tLxi3ASI6VdpbAiopnlcEro-NBQ_ap8jSKulg77Qt9tdZFYIi8BbAMfncE4Xdg4XKQaQRLosovi3cqRLPWYVqIodJdvIeTlTM7LRffH1uQEbPl1A2uK2MALSx49cZXwAmLJtzsGSxhw8fkZco14_jEUTENqahREinBV2v-hjALRuT4mWh0P0BqfjHNRZHWL_WCZxb9yd92cQMf7mQc1zfHwShtMg9B-Qhgdk3bqJetRj1Gxqr35hXk-ERmKfrQAYJvDGtX5l8HyUihnwe4Tg4hAzFl_E4pjKh0h4q3bAAGvCgMFjXKYAesLfQZyo2f7QE-pKQJD9pzKqr8lHGi_QEcGwwtSQrWJQ8eSfvgavO_eVcc1k5fsXHFNRVzTlINQcZbUhRnBQIuforRldWkwG2kMeY6RLx6pe58xqRDEk-1S6nrA5RjThxOMdkqqljb1IDcmMjsWqS05EO0vAJrfVudyJAK_bVkm4xpG_Rg-mPtOY6yMIJJxwgrK5fXnJUJ8G3q8NMgqtJHwLRxn1pTKxt8Nj7saLbLmGQbeYe1GjRkb5zmpKl21U9DAoW5Db0e5hH2I71LSRqd_PaFziJ51goxTtFZr5uTA5WCRyOdSa15xsCZG1gqhmgz8owNvOKvGUBawpzSopzqgHHtm0lgF6tBGaEcIODWERGkvFl4iTVYFNrCnxwGWg_NBH1eQ_FQNIwDbdxRlYPiNpjTgob_nB7- -HOknSHygHh57p36pBnT4MlxalttU1crNzrHsIEkDTyG5ByUZul9IizBiIaE1UVwQM5LtR73-0m00]--></g></svg>